<?xml version="1.0" encoding="utf-8"?>
<!-- Generator: Adobe Illustrator 24.1.3, SVG Export Plug-In . SVG Version: 6.00 Build 0)  -->
<svg version="1.1" id="Layer_1" xmlns="http://www.w3.org/2000/svg" xmlns:xlink="http://www.w3.org/1999/xlink" x="0px" y="0px"
	 viewBox="0 0 100 100" style="enable-background:new 0 0 100 100;" xml:space="preserve">
<style type="text/css">
	.st0{fill:#F4F4F4;}
	.st1{opacity:0.5;clip-path:url(#SVGID_2_);fill:#FFCC29;}
	.st2{opacity:0.5;clip-path:url(#SVGID_4_);fill:#FFCC29;}
	.st3{fill:none;stroke:#FBAE17;stroke-width:3;stroke-miterlimit:10;}
	.st4{fill:#FFFFFF;}
	.st5{fill:#333333;}
	.st6{fill:#FFB900;}
	.st7{fill:none;stroke:#FBAE17;stroke-width:2;stroke-miterlimit:10;}
	.st8{fill:url(#SVGID_5_);}
	.st9{fill:url(#SVGID_6_);}
	.st10{opacity:0.5;clip-path:url(#SVGID_8_);fill:#FFCC29;}
	.st11{fill:url(#SVGID_9_);}
	.st12{fill:url(#SVGID_10_);}
	.st13{opacity:0.8;clip-path:url(#SVGID_14_);fill:#FFCC29;}
	.st14{fill:url(#SVGID_15_);}
	.st15{fill:url(#SVGID_16_);}
	.st16{opacity:0.8;clip-path:url(#SVGID_24_);fill:#FFCC29;}
	.st17{fill:url(#SVGID_25_);}
	.st18{fill:url(#SVGID_26_);}
	.st19{fill:#EEEEEE;}
	.st20{opacity:0.8;clip-path:url(#SVGID_30_);fill:#FFCC29;}
	.st21{fill:url(#SVGID_31_);}
	.st22{fill:url(#SVGID_32_);}
	.st23{fill:url(#SVGID_33_);}
	.st24{clip-path:url(#SVGID_35_);}
	.st25{clip-path:url(#SVGID_37_);}
	.st26{fill:#006837;}
	.st27{clip-path:url(#SVGID_39_);}
	.st28{clip-path:url(#SVGID_41_);}
	.st29{opacity:0.8;clip-path:url(#SVGID_47_);fill:#FFCC29;}
	.st30{fill:url(#SVGID_48_);}
	.st31{fill:none;stroke:#FBAE17;stroke-width:1.5684;stroke-miterlimit:10;}
	.st32{fill:url(#SVGID_49_);}
	.st33{opacity:0.8;clip-path:url(#SVGID_55_);fill:#FFCC29;}
	.st34{opacity:0.8;clip-path:url(#SVGID_57_);fill:#FFCC29;}
	.st35{fill:url(#SVGID_58_);}
	.st36{fill:url(#SVGID_59_);}
	.st37{fill:url(#SVGID_60_);}
	.st38{opacity:0.8;clip-path:url(#SVGID_62_);fill:#FFCC29;}
	.st39{fill:url(#SVGID_63_);}
	.st40{fill:url(#SVGID_64_);}
	.st41{fill:url(#SVGID_65_);}
	.st42{fill:url(#SVGID_66_);}
	.st43{fill:url(#SVGID_67_);}
	.st44{fill:url(#SVGID_68_);}
	.st45{fill:url(#SVGID_69_);}
	.st46{opacity:0.8;clip-path:url(#SVGID_71_);fill:#FFCC29;}
	.st47{fill:url(#SVGID_72_);}
	.st48{fill:none;stroke:#FBAE17;stroke-width:1.5686;stroke-miterlimit:10;}
	.st49{fill:url(#SVGID_73_);}
	.st50{opacity:0.8;clip-path:url(#SVGID_75_);fill:#FFCC29;}
	.st51{fill:url(#SVGID_76_);}
	.st52{fill:none;stroke:#FBAE17;stroke-width:1.5278;stroke-miterlimit:10;}
	.st53{fill:none;stroke:#FBAE17;stroke-width:1.5256;stroke-miterlimit:10;}
	.st54{fill:url(#SVGID_77_);}
	.st55{opacity:0.8;clip-path:url(#SVGID_81_);fill:#FFCC29;}
	.st56{fill:url(#SVGID_82_);}
	.st57{fill:url(#SVGID_83_);}
	.st58{opacity:0.8;clip-path:url(#SVGID_85_);fill:#FFCC29;}
	.st59{fill:url(#SVGID_86_);}
	.st60{fill:url(#SVGID_87_);}
	.st61{fill:none;stroke:#FFB900;stroke-width:3;stroke-miterlimit:10;}
	.st62{opacity:0.8;clip-path:url(#SVGID_89_);fill:#FFCC29;}
	.st63{fill:url(#SVGID_90_);}
	.st64{fill:url(#SVGID_91_);}
	.st65{fill:url(#SVGID_92_);}
	.st66{clip-path:url(#SVGID_94_);}
	.st67{clip-path:url(#SVGID_96_);}
	.st68{clip-path:url(#SVGID_98_);}
	.st69{clip-path:url(#SVGID_100_);}
	.st70{opacity:0.8;clip-path:url(#SVGID_104_);fill:#FFCC29;}
	.st71{fill:url(#SVGID_105_);}
	.st72{fill:url(#SVGID_106_);}
	.st73{fill:url(#SVGID_107_);}
	.st74{clip-path:url(#SVGID_109_);}
	.st75{clip-path:url(#SVGID_111_);}
	.st76{clip-path:url(#SVGID_113_);}
	.st77{clip-path:url(#SVGID_115_);}
	.st78{opacity:0.8;clip-path:url(#SVGID_119_);fill:#FFCC29;}
	.st79{fill:url(#SVGID_120_);}
	.st80{fill:url(#SVGID_121_);}
	.st81{opacity:0.8;clip-path:url(#SVGID_127_);fill:#FFCC29;}
	.st82{fill:url(#SVGID_128_);}
	.st83{fill:url(#SVGID_129_);}
</style>
<g>
	<path class="st6" d="M60.68,44.25c10.45,0,20.9-0.02,31.35,0.01c5.67,0.01,7.45,1.83,7.45,7.52c0.01,11.68,0.02,23.36,0,35.04
		c-0.01,5.42-1.82,7.22-7.35,7.23c-21.27,0.02-42.54,0.03-63.81,0c-5.22-0.01-7.11-1.93-7.12-7.13c-0.02-11.8-0.02-23.61,0-35.41
		c0.01-5.36,1.91-7.23,7.4-7.25C39.29,44.23,49.99,44.25,60.68,44.25z M84.66,63.2c0,0,0,0.01,0,0.01c-1.84,0-3.67-0.07-5.51,0.01
		c-3.98,0.17-4.11,2.98-4.13,5.99c-0.02,3.07,0.31,5.8,4.24,5.9c3.3,0.09,6.61-0.04,9.91,0.04c3.45,0.08,4.81-1.73,4.95-4.95
		c0.25-5.7-0.93-7.01-6.52-7.01C86.62,63.2,85.64,63.2,84.66,63.2z M57.77,81.88c-4.21,0-8.42,0-12.63,0
		c-0.08,2.67-0.08,2.67,2.54,2.75C57.66,84.9,57.66,84.9,57.77,81.88z M75.72,81.88c-4.52,0-8.65,0-12.78,0
		c0.17,2.76,0.17,2.83,8.75,2.68C73.27,84.54,76.27,85.92,75.72,81.88z M94.16,83.26c-0.17-0.45-0.33-0.89-0.5-1.34
		c-4.22,0-8.44,0-12.66,0c-0.15,0.4-0.3,0.8-0.45,1.2c1.05,0.5,2.19,1.55,3.15,1.41C87.14,84.02,91.26,86.22,94.16,83.26z
		 M26.99,81.87c0.22,2.99,0.22,2.99,9.85,2.76c1.69-0.04,3.7,0.28,2.76-2.76C35.5,81.87,31.4,81.87,26.99,81.87z"/>
	<path class="st6" d="M17.78,71.03c-4.11,0.69-6.34-0.37-7.36-4C8.24,59.26,6.26,51.44,4.09,43.2c25.3-6.77,50.41-13.48,75.72-20.25
		c1.69,6.29,3.24,12.06,4.92,18.34c-1.59,0-2.88,0-4.18,0c-17.19,0-34.38-0.01-51.56,0c-7.59,0.01-10.77,3.17-10.79,10.67
		c-0.02,6.14-0.06,12.27-0.11,18.41C18.08,70.6,17.89,70.81,17.78,71.03z"/>
	<path class="st6" d="M77.13,13.7C52.05,20.42,26.95,27.13,1.87,33.84c-2.78-6.78-1.51-9.33,5.29-11.16
		c19.79-5.31,39.57-10.63,59.36-15.94C73.73,4.82,75.54,5.98,77.13,13.7z"/>
</g>
</svg>
