<?xml version="1.0" encoding="utf-8"?>
<!-- Generator: Adobe Illustrator 24.1.3, SVG Export Plug-In . SVG Version: 6.00 Build 0)  -->
<svg version="1.1" id="Layer_1" xmlns="http://www.w3.org/2000/svg" xmlns:xlink="http://www.w3.org/1999/xlink" x="0px" y="0px"
	 viewBox="0 0 80 80" style="enable-background:new 0 0 80 80;" xml:space="preserve">
<style type="text/css">
	.st0{fill:#F4F4F4;}
	.st1{opacity:0.5;clip-path:url(#SVGID_2_);fill:#FFCC29;}
	.st2{opacity:0.5;clip-path:url(#SVGID_4_);fill:#FFCC29;}
	.st3{fill:none;stroke:#FBAE17;stroke-width:3;stroke-miterlimit:10;}
	.st4{fill:#FFFFFF;}
	.st5{fill:#333333;}
	.st6{fill:#FFB900;}
	.st7{fill:none;stroke:#FBAE17;stroke-width:2;stroke-miterlimit:10;}
	.st8{fill:url(#SVGID_5_);}
	.st9{fill:url(#SVGID_6_);}
	.st10{opacity:0.5;clip-path:url(#SVGID_8_);fill:#FFCC29;}
	.st11{fill:url(#SVGID_9_);}
	.st12{fill:url(#SVGID_10_);}
	.st13{opacity:0.8;clip-path:url(#SVGID_14_);fill:#FFCC29;}
	.st14{fill:url(#SVGID_15_);}
	.st15{fill:url(#SVGID_16_);}
	.st16{opacity:0.8;clip-path:url(#SVGID_24_);fill:#FFCC29;}
	.st17{fill:url(#SVGID_25_);}
	.st18{fill:url(#SVGID_26_);}
	.st19{fill:#EEEEEE;}
	.st20{opacity:0.8;clip-path:url(#SVGID_30_);fill:#FFCC29;}
	.st21{fill:url(#SVGID_31_);}
	.st22{fill:url(#SVGID_32_);}
	.st23{fill:url(#SVGID_33_);}
	.st24{clip-path:url(#SVGID_35_);}
	.st25{clip-path:url(#SVGID_37_);}
	.st26{fill:#006837;}
	.st27{clip-path:url(#SVGID_39_);}
	.st28{clip-path:url(#SVGID_41_);}
	.st29{opacity:0.8;clip-path:url(#SVGID_47_);fill:#FFCC29;}
	.st30{fill:url(#SVGID_48_);}
	.st31{fill:none;stroke:#FBAE17;stroke-width:1.5684;stroke-miterlimit:10;}
	.st32{fill:url(#SVGID_49_);}
	.st33{opacity:0.8;clip-path:url(#SVGID_55_);fill:#FFCC29;}
	.st34{fill:url(#SVGID_56_);}
	.st35{fill:url(#SVGID_57_);}
	.st36{fill:url(#SVGID_58_);}
	.st37{opacity:0.8;clip-path:url(#SVGID_60_);fill:#FFCC29;}
	.st38{fill:url(#SVGID_61_);}
	.st39{fill:url(#SVGID_62_);}
	.st40{fill:url(#SVGID_63_);}
	.st41{fill:url(#SVGID_64_);}
	.st42{fill:url(#SVGID_65_);}
	.st43{fill:url(#SVGID_66_);}
	.st44{fill:url(#SVGID_67_);}
	.st45{opacity:0.8;clip-path:url(#SVGID_69_);fill:#FFCC29;}
	.st46{fill:url(#SVGID_70_);}
	.st47{fill:none;stroke:#FBAE17;stroke-width:1.5686;stroke-miterlimit:10;}
	.st48{fill:url(#SVGID_71_);}
	.st49{opacity:0.8;clip-path:url(#SVGID_73_);fill:#FFCC29;}
	.st50{fill:url(#SVGID_74_);}
	.st51{fill:none;stroke:#FBAE17;stroke-width:1.5278;stroke-miterlimit:10;}
	.st52{fill:none;stroke:#FBAE17;stroke-width:1.5256;stroke-miterlimit:10;}
	.st53{fill:url(#SVGID_75_);}
	.st54{opacity:0.8;clip-path:url(#SVGID_79_);fill:#FFCC29;}
	.st55{fill:url(#SVGID_80_);}
	.st56{fill:url(#SVGID_81_);}
	.st57{opacity:0.8;clip-path:url(#SVGID_83_);fill:#FFCC29;}
	.st58{fill:url(#SVGID_84_);}
	.st59{fill:url(#SVGID_85_);}
	.st60{fill:none;stroke:#FFB900;stroke-width:3;stroke-miterlimit:10;}
	.st61{opacity:0.8;clip-path:url(#SVGID_87_);fill:#FFCC29;}
	.st62{fill:url(#SVGID_88_);}
	.st63{fill:url(#SVGID_89_);}
	.st64{fill:url(#SVGID_90_);}
	.st65{clip-path:url(#SVGID_92_);}
	.st66{clip-path:url(#SVGID_94_);}
	.st67{clip-path:url(#SVGID_96_);}
	.st68{clip-path:url(#SVGID_98_);}
	.st69{opacity:0.8;clip-path:url(#SVGID_102_);fill:#FFCC29;}
	.st70{fill:url(#SVGID_103_);}
	.st71{fill:url(#SVGID_104_);}
	.st72{fill:url(#SVGID_105_);}
	.st73{clip-path:url(#SVGID_107_);}
	.st74{clip-path:url(#SVGID_109_);}
	.st75{clip-path:url(#SVGID_111_);}
	.st76{clip-path:url(#SVGID_113_);}
	.st77{opacity:0.8;clip-path:url(#SVGID_117_);fill:#FFCC29;}
	.st78{fill:url(#SVGID_118_);}
	.st79{fill:url(#SVGID_119_);}
	.st80{opacity:0.8;clip-path:url(#SVGID_125_);fill:#FFCC29;}
	.st81{fill:url(#SVGID_126_);}
	.st82{fill:url(#SVGID_127_);}
</style>
<g>
	<path class="st4" d="M48.36,35.5c8.18,0,16.36-0.02,24.54,0.01c4.44,0.01,5.83,1.43,5.83,5.89c0.01,9.14,0.01,18.29,0,27.43
		c-0.01,4.25-1.42,5.66-5.76,5.66c-16.65,0.02-33.3,0.02-49.95,0c-4.09-0.01-5.57-1.51-5.57-5.58c-0.02-9.24-0.02-18.48,0-27.72
		c0.01-4.2,1.5-5.66,5.79-5.67C31.62,35.49,39.99,35.5,48.36,35.5z M67.13,50.34C67.13,50.34,67.13,50.34,67.13,50.34
		c-1.44,0.01-2.88-0.04-4.31,0.02c-3.12,0.14-3.22,2.34-3.24,4.69c-0.02,2.41,0.24,4.54,3.32,4.62c2.58,0.07,5.17-0.03,7.76,0.03
		c2.7,0.06,3.76-1.35,3.88-3.88c0.2-4.46-0.73-5.49-5.11-5.49C68.67,50.34,67.9,50.34,67.13,50.34z M46.09,64.95
		c-3.3,0-6.59,0-9.88,0c-0.07,2.09-0.07,2.09,1.99,2.15C46,67.32,46,67.32,46.09,64.95z M60.13,64.96c-3.54,0-6.77,0-10.01,0
		c0.13,2.16,0.13,2.22,6.85,2.1C58.22,67.03,60.57,68.12,60.13,64.96z M74.57,66.03c-0.13-0.35-0.26-0.7-0.39-1.05
		c-3.3,0-6.61,0-9.91,0c-0.12,0.31-0.24,0.63-0.35,0.94c0.82,0.39,1.71,1.21,2.46,1.1C69.08,66.63,72.3,68.35,74.57,66.03z
		 M21.99,64.95c0.17,2.34,0.17,2.34,7.71,2.16c1.33-0.03,2.9,0.22,2.16-2.16C28.65,64.95,25.44,64.95,21.99,64.95z"/>
	<path class="st4" d="M14.78,56.46c-3.22,0.54-4.97-0.29-5.76-3.13c-1.7-6.08-3.25-12.2-4.95-18.65
		c19.8-5.3,39.46-10.55,59.27-15.85c1.32,4.93,2.54,9.44,3.85,14.36c-1.24,0-2.26,0-3.27,0c-13.46,0-26.91-0.01-40.37,0
		c-5.94,0-8.43,2.48-8.45,8.35c-0.02,4.8-0.05,9.61-0.09,14.41C15.01,56.12,14.86,56.29,14.78,56.46z"/>
	<path class="st4" d="M61.24,11.58C41.6,16.84,21.95,22.1,2.33,27.35c-2.17-5.31-1.18-7.31,4.14-8.73
		c15.49-4.15,30.98-8.32,46.47-12.48C58.58,4.63,60,5.54,61.24,11.58z"/>
</g>
</svg>
