<?xml version="1.0" encoding="utf-8"?>
<!-- Generator: Adobe Illustrator 24.1.3, SVG Export Plug-In . SVG Version: 6.00 Build 0)  -->
<svg version="1.1" id="Layer_1" xmlns="http://www.w3.org/2000/svg" xmlns:xlink="http://www.w3.org/1999/xlink" x="0px" y="0px"
	 viewBox="0 0 80 80" style="enable-background:new 0 0 80 80;" xml:space="preserve">
<style type="text/css">
	.st0{fill:#F4F4F4;}
	.st1{opacity:0.5;clip-path:url(#SVGID_2_);fill:#FFCC29;}
	.st2{opacity:0.5;clip-path:url(#SVGID_4_);fill:#FFCC29;}
	.st3{fill:none;stroke:#FBAE17;stroke-width:3;stroke-miterlimit:10;}
	.st4{fill:#FFFFFF;}
	.st5{fill:#333333;}
	.st6{fill:#FFB900;}
	.st7{fill:none;stroke:#FBAE17;stroke-width:2;stroke-miterlimit:10;}
	.st8{fill:url(#SVGID_5_);}
	.st9{fill:url(#SVGID_6_);}
	.st10{opacity:0.5;clip-path:url(#SVGID_8_);fill:#FFCC29;}
	.st11{fill:url(#SVGID_9_);}
	.st12{fill:url(#SVGID_10_);}
	.st13{opacity:0.8;clip-path:url(#SVGID_14_);fill:#FFCC29;}
	.st14{fill:url(#SVGID_15_);}
	.st15{fill:url(#SVGID_16_);}
	.st16{opacity:0.8;clip-path:url(#SVGID_24_);fill:#FFCC29;}
	.st17{fill:url(#SVGID_25_);}
	.st18{fill:url(#SVGID_26_);}
	.st19{fill:#EEEEEE;}
	.st20{opacity:0.8;clip-path:url(#SVGID_30_);fill:#FFCC29;}
	.st21{fill:url(#SVGID_31_);}
	.st22{fill:url(#SVGID_32_);}
	.st23{fill:url(#SVGID_33_);}
	.st24{clip-path:url(#SVGID_35_);}
	.st25{clip-path:url(#SVGID_37_);}
	.st26{fill:#006837;}
	.st27{clip-path:url(#SVGID_39_);}
	.st28{clip-path:url(#SVGID_41_);}
	.st29{opacity:0.8;clip-path:url(#SVGID_47_);fill:#FFCC29;}
	.st30{fill:url(#SVGID_48_);}
	.st31{fill:none;stroke:#FBAE17;stroke-width:1.5684;stroke-miterlimit:10;}
	.st32{fill:url(#SVGID_49_);}
	.st33{opacity:0.8;clip-path:url(#SVGID_55_);fill:#FFCC29;}
	.st34{fill:url(#SVGID_56_);}
	.st35{fill:url(#SVGID_57_);}
	.st36{fill:url(#SVGID_58_);}
	.st37{opacity:0.8;clip-path:url(#SVGID_60_);fill:#FFCC29;}
	.st38{fill:url(#SVGID_61_);}
	.st39{fill:url(#SVGID_62_);}
	.st40{fill:url(#SVGID_63_);}
	.st41{fill:url(#SVGID_64_);}
	.st42{fill:url(#SVGID_65_);}
	.st43{fill:url(#SVGID_66_);}
	.st44{fill:url(#SVGID_67_);}
	.st45{opacity:0.8;clip-path:url(#SVGID_69_);fill:#FFCC29;}
	.st46{fill:url(#SVGID_70_);}
	.st47{fill:none;stroke:#FBAE17;stroke-width:1.5686;stroke-miterlimit:10;}
	.st48{fill:url(#SVGID_71_);}
	.st49{opacity:0.8;clip-path:url(#SVGID_73_);fill:#FFCC29;}
	.st50{fill:url(#SVGID_74_);}
	.st51{fill:none;stroke:#FBAE17;stroke-width:1.5278;stroke-miterlimit:10;}
	.st52{fill:none;stroke:#FBAE17;stroke-width:1.5256;stroke-miterlimit:10;}
	.st53{fill:url(#SVGID_75_);}
	.st54{opacity:0.8;clip-path:url(#SVGID_79_);fill:#FFCC29;}
	.st55{fill:url(#SVGID_80_);}
	.st56{fill:url(#SVGID_81_);}
	.st57{opacity:0.8;clip-path:url(#SVGID_83_);fill:#FFCC29;}
	.st58{fill:url(#SVGID_84_);}
	.st59{fill:url(#SVGID_85_);}
	.st60{fill:none;stroke:#FFB900;stroke-width:3;stroke-miterlimit:10;}
	.st61{opacity:0.8;clip-path:url(#SVGID_87_);fill:#FFCC29;}
	.st62{fill:url(#SVGID_88_);}
	.st63{fill:url(#SVGID_89_);}
	.st64{fill:url(#SVGID_90_);}
	.st65{clip-path:url(#SVGID_92_);}
	.st66{clip-path:url(#SVGID_94_);}
	.st67{clip-path:url(#SVGID_96_);}
	.st68{clip-path:url(#SVGID_98_);}
	.st69{opacity:0.8;clip-path:url(#SVGID_102_);fill:#FFCC29;}
	.st70{fill:url(#SVGID_103_);}
	.st71{fill:url(#SVGID_104_);}
	.st72{fill:url(#SVGID_105_);}
	.st73{clip-path:url(#SVGID_107_);}
	.st74{clip-path:url(#SVGID_109_);}
	.st75{clip-path:url(#SVGID_111_);}
	.st76{clip-path:url(#SVGID_113_);}
	.st77{opacity:0.8;clip-path:url(#SVGID_117_);fill:#FFCC29;}
	.st78{fill:url(#SVGID_118_);}
	.st79{fill:url(#SVGID_119_);}
	.st80{opacity:0.8;clip-path:url(#SVGID_125_);fill:#FFCC29;}
	.st81{fill:url(#SVGID_126_);}
	.st82{fill:url(#SVGID_127_);}
</style>
<g>
	<path class="st5" d="M48.19,78.17c0-7.07-0.1-13.84,0.05-20.61c0.05-2.37-0.66-3.16-3.04-3.05c-3.66,0.18-7.33,0.11-10.99,0.02
		c-1.82-0.05-2.46,0.59-2.43,2.44c0.08,6.94,0.03,13.87,0.03,20.96c-0.57,0.09-1.08,0.23-1.59,0.23C25,78.18,19.77,78.14,14.55,78.2
		c-1.51,0.02-2.34-0.35-2.34-2.06c0.03-11.77-0.01-23.55,0.07-35.32c0.01-0.87,0.61-1.93,1.26-2.56
		c8.16-7.94,16.41-15.79,24.55-23.74c1.47-1.43,2.4-1.36,3.83,0.05c8.16,8.05,16.43,15.98,24.6,24.03c0.68,0.67,1.19,1.86,1.2,2.81
		c0.08,11.46,0.05,22.93,0.05,34.39c0,1.22,0.03,2.4-1.73,2.39C60.19,78.16,54.35,78.17,48.19,78.17z"/>
	<path class="st5" d="M39.96,7.38c-8.42,8-16.79,15.95-25.15,23.89c-3.22,3.06-6.45,6.12-9.66,9.19c-1.18,1.13-2.47,1.88-3.85,0.51
		c-1.5-1.49-0.64-2.78,0.62-3.98c12-11.37,23.99-22.75,35.96-34.15c1.48-1.41,2.78-1.39,4.25,0.01
		c11.97,11.4,23.97,22.78,35.96,34.15c1.27,1.2,2.11,2.51,0.59,3.97c-1.52,1.45-2.8,0.46-4.02-0.7
		C63.71,29.85,52.74,19.44,41.76,9.02C41.2,8.49,40.62,7.98,39.96,7.38z"/>
</g>
</svg>
