<?xml version="1.0" encoding="utf-8"?>
<!-- Generator: Adobe Illustrator 24.1.3, SVG Export Plug-In . SVG Version: 6.00 Build 0)  -->
<svg version="1.1" id="Layer_1" xmlns="http://www.w3.org/2000/svg" xmlns:xlink="http://www.w3.org/1999/xlink" x="0px" y="0px"
	 viewBox="0 0 80 80" style="enable-background:new 0 0 80 80;" xml:space="preserve">
<style type="text/css">
	.st0{fill:#F4F4F4;}
	.st1{opacity:0.5;clip-path:url(#SVGID_2_);fill:#FFCC29;}
	.st2{opacity:0.5;clip-path:url(#SVGID_4_);fill:#FFCC29;}
	.st3{fill:none;stroke:#FBAE17;stroke-width:3;stroke-miterlimit:10;}
	.st4{fill:#FFFFFF;}
	.st5{fill:#333333;}
	.st6{fill:#FFB900;}
	.st7{fill:none;stroke:#FBAE17;stroke-width:2;stroke-miterlimit:10;}
	.st8{fill:url(#SVGID_5_);}
	.st9{fill:url(#SVGID_6_);}
	.st10{opacity:0.5;clip-path:url(#SVGID_8_);fill:#FFCC29;}
	.st11{fill:url(#SVGID_9_);}
	.st12{fill:url(#SVGID_10_);}
	.st13{opacity:0.8;clip-path:url(#SVGID_14_);fill:#FFCC29;}
	.st14{fill:url(#SVGID_15_);}
	.st15{fill:url(#SVGID_16_);}
	.st16{opacity:0.8;clip-path:url(#SVGID_24_);fill:#FFCC29;}
	.st17{fill:url(#SVGID_25_);}
	.st18{fill:url(#SVGID_26_);}
	.st19{fill:#EEEEEE;}
	.st20{opacity:0.8;clip-path:url(#SVGID_30_);fill:#FFCC29;}
	.st21{fill:url(#SVGID_31_);}
	.st22{fill:url(#SVGID_32_);}
	.st23{fill:url(#SVGID_33_);}
	.st24{clip-path:url(#SVGID_35_);}
	.st25{clip-path:url(#SVGID_37_);}
	.st26{fill:#006837;}
	.st27{clip-path:url(#SVGID_39_);}
	.st28{clip-path:url(#SVGID_41_);}
	.st29{opacity:0.8;clip-path:url(#SVGID_47_);fill:#FFCC29;}
	.st30{fill:url(#SVGID_48_);}
	.st31{fill:none;stroke:#FBAE17;stroke-width:1.5684;stroke-miterlimit:10;}
	.st32{fill:url(#SVGID_49_);}
	.st33{opacity:0.8;clip-path:url(#SVGID_55_);fill:#FFCC29;}
	.st34{fill:url(#SVGID_56_);}
	.st35{fill:url(#SVGID_57_);}
	.st36{fill:url(#SVGID_58_);}
	.st37{opacity:0.8;clip-path:url(#SVGID_60_);fill:#FFCC29;}
	.st38{fill:url(#SVGID_61_);}
	.st39{fill:url(#SVGID_62_);}
	.st40{fill:url(#SVGID_63_);}
	.st41{fill:url(#SVGID_64_);}
	.st42{fill:url(#SVGID_65_);}
	.st43{fill:url(#SVGID_66_);}
	.st44{fill:url(#SVGID_67_);}
	.st45{opacity:0.8;clip-path:url(#SVGID_69_);fill:#FFCC29;}
	.st46{fill:url(#SVGID_70_);}
	.st47{fill:none;stroke:#FBAE17;stroke-width:1.5686;stroke-miterlimit:10;}
	.st48{fill:url(#SVGID_71_);}
	.st49{opacity:0.8;clip-path:url(#SVGID_73_);fill:#FFCC29;}
	.st50{fill:url(#SVGID_74_);}
	.st51{fill:none;stroke:#FBAE17;stroke-width:1.5278;stroke-miterlimit:10;}
	.st52{fill:none;stroke:#FBAE17;stroke-width:1.5256;stroke-miterlimit:10;}
	.st53{fill:url(#SVGID_75_);}
	.st54{opacity:0.8;clip-path:url(#SVGID_79_);fill:#FFCC29;}
	.st55{fill:url(#SVGID_80_);}
	.st56{fill:url(#SVGID_81_);}
	.st57{opacity:0.8;clip-path:url(#SVGID_83_);fill:#FFCC29;}
	.st58{fill:url(#SVGID_84_);}
	.st59{fill:url(#SVGID_85_);}
	.st60{fill:none;stroke:#FFB900;stroke-width:3;stroke-miterlimit:10;}
	.st61{opacity:0.8;clip-path:url(#SVGID_87_);fill:#FFCC29;}
	.st62{fill:url(#SVGID_88_);}
	.st63{fill:url(#SVGID_89_);}
	.st64{fill:url(#SVGID_90_);}
	.st65{clip-path:url(#SVGID_92_);}
	.st66{clip-path:url(#SVGID_94_);}
	.st67{clip-path:url(#SVGID_96_);}
	.st68{clip-path:url(#SVGID_98_);}
	.st69{opacity:0.8;clip-path:url(#SVGID_102_);fill:#FFCC29;}
	.st70{fill:url(#SVGID_103_);}
	.st71{fill:url(#SVGID_104_);}
	.st72{fill:url(#SVGID_105_);}
	.st73{clip-path:url(#SVGID_107_);}
	.st74{clip-path:url(#SVGID_109_);}
	.st75{clip-path:url(#SVGID_111_);}
	.st76{clip-path:url(#SVGID_113_);}
	.st77{opacity:0.8;clip-path:url(#SVGID_117_);fill:#FFCC29;}
	.st78{fill:url(#SVGID_118_);}
	.st79{fill:url(#SVGID_119_);}
	.st80{opacity:0.8;clip-path:url(#SVGID_125_);fill:#FFCC29;}
	.st81{fill:url(#SVGID_126_);}
	.st82{fill:url(#SVGID_127_);}
</style>
<g>
	<path class="st4" d="M26.28,42.79c0.87,3.28,2.65,6.03,4.38,8.79c1.97,3.14,4.06,6.2,6.22,9.49c0.11-0.44,0.2-0.62,0.21-0.81
		c0.18-2.6,0.37-5.19,0.5-7.79c0.01-0.31-0.27-0.73-0.54-0.95c-1.21-0.97-2.03-2.13-2.2-3.88c3.48,1.32,6.85,1.35,10.33-0.01
		c-0.11,1.7-0.89,2.91-2.14,3.81c-0.51,0.37-0.67,0.7-0.61,1.32c0.2,2.34,0.33,4.69,0.49,7.03c0.02,0.34,0.07,0.68,0.21,1.07
		c3.93-5.77,8.19-11.33,10.76-18.06c1.95,0.1,3.95,0.64,5.91,1.39c8.92,3.43,14.78,12.45,14.29,21.98
		c-0.32,6.09-3.38,9.61-9.44,10.59c-2.62,0.42-5.3,0.69-7.95,0.71c-11.65,0.06-23.3,0.03-34.96-0.03c-2.86-0.01-5.7-0.33-8.45-1.19
		c-4.15-1.29-6.53-4.08-7.15-8.37c-1.76-12.13,7.59-23.95,19.82-25.08C26.03,42.78,26.12,42.79,26.28,42.79z"/>
	<path class="st4" d="M57.05,19.56c-0.31,7.42-1.65,13.65-5.64,19.04c-2.07,2.79-4.62,5-8.03,5.97c-4.95,1.4-9.14-0.17-12.71-3.62
		c-3.53-3.42-5.54-7.71-6.61-12.44c-0.9-3.97-1.46-7.99-0.65-12.07c1.78-8.93,10.1-15.12,18.93-13.75C49.49,3.8,54,8.21,56.19,15
		C56.74,16.72,56.88,18.59,57.05,19.56z M25.38,23.69c0.28,5.33,2.63,11.34,6.1,14.84c5.46,5.5,12.69,5.21,17.7-0.71
		c2.76-3.26,4.31-7.06,5.1-11.21c0.17-0.91,0.28-1.83,0.45-2.96c-0.91,0.41-1.59,0.71-2.16,0.96c0-2.42,0.09-4.86-0.05-7.29
		c-0.06-1-0.53-2.01-0.97-2.93c-0.35-0.74-0.96-0.99-1.88-0.6c-3.14,1.34-6.43,2.22-9.87,2.18c-3.24-0.04-6.35-0.86-9.32-2.11
		c-1.18-0.5-1.42-0.39-2.16,0.7c-0.33,0.48-0.59,1.09-0.66,1.66c-0.19,1.57-0.33,3.15-0.35,4.73c-0.02,1.23,0.17,2.46,0.27,3.73
		C26.87,24.35,26.19,24.04,25.38,23.69z"/>
</g>
</svg>
