<?xml version="1.0" encoding="utf-8"?>
<!-- Generator: Adobe Illustrator 24.1.3, SVG Export Plug-In . SVG Version: 6.00 Build 0)  -->
<svg version="1.1" id="Layer_1" xmlns="http://www.w3.org/2000/svg" xmlns:xlink="http://www.w3.org/1999/xlink" x="0px" y="0px"
	 viewBox="0 0 100 100" style="enable-background:new 0 0 100 100;" xml:space="preserve">
<style type="text/css">
	.st0{fill:#F4F4F4;}
	.st1{opacity:0.5;clip-path:url(#SVGID_2_);fill:#FFCC29;}
	.st2{opacity:0.5;clip-path:url(#SVGID_4_);fill:#FFCC29;}
	.st3{fill:none;stroke:#FBAE17;stroke-width:3;stroke-miterlimit:10;}
	.st4{fill:#FFFFFF;}
	.st5{fill:#333333;}
	.st6{fill:#FFB900;}
	.st7{fill:none;stroke:#FBAE17;stroke-width:2;stroke-miterlimit:10;}
	.st8{fill:url(#SVGID_5_);}
	.st9{fill:url(#SVGID_6_);}
	.st10{opacity:0.5;clip-path:url(#SVGID_8_);fill:#FFCC29;}
	.st11{fill:url(#SVGID_9_);}
	.st12{fill:url(#SVGID_10_);}
	.st13{opacity:0.8;clip-path:url(#SVGID_14_);fill:#FFCC29;}
	.st14{fill:url(#SVGID_15_);}
	.st15{fill:url(#SVGID_16_);}
	.st16{opacity:0.8;clip-path:url(#SVGID_24_);fill:#FFCC29;}
	.st17{fill:url(#SVGID_25_);}
	.st18{fill:url(#SVGID_26_);}
	.st19{fill:#EEEEEE;}
	.st20{opacity:0.8;clip-path:url(#SVGID_30_);fill:#FFCC29;}
	.st21{fill:url(#SVGID_31_);}
	.st22{fill:url(#SVGID_32_);}
	.st23{fill:url(#SVGID_33_);}
	.st24{clip-path:url(#SVGID_35_);}
	.st25{clip-path:url(#SVGID_37_);}
	.st26{fill:#006837;}
	.st27{clip-path:url(#SVGID_39_);}
	.st28{clip-path:url(#SVGID_41_);}
	.st29{opacity:0.8;clip-path:url(#SVGID_47_);fill:#FFCC29;}
	.st30{fill:url(#SVGID_48_);}
	.st31{fill:none;stroke:#FBAE17;stroke-width:1.5684;stroke-miterlimit:10;}
	.st32{fill:url(#SVGID_49_);}
	.st33{opacity:0.8;clip-path:url(#SVGID_55_);fill:#FFCC29;}
	.st34{fill:url(#SVGID_56_);}
	.st35{fill:url(#SVGID_57_);}
	.st36{fill:url(#SVGID_58_);}
	.st37{opacity:0.8;clip-path:url(#SVGID_60_);fill:#FFCC29;}
	.st38{fill:url(#SVGID_61_);}
	.st39{fill:url(#SVGID_62_);}
	.st40{fill:url(#SVGID_63_);}
	.st41{fill:url(#SVGID_64_);}
	.st42{fill:url(#SVGID_65_);}
	.st43{fill:url(#SVGID_66_);}
	.st44{fill:url(#SVGID_67_);}
	.st45{opacity:0.8;clip-path:url(#SVGID_69_);fill:#FFCC29;}
	.st46{fill:url(#SVGID_70_);}
	.st47{fill:none;stroke:#FBAE17;stroke-width:1.5686;stroke-miterlimit:10;}
	.st48{fill:url(#SVGID_71_);}
	.st49{opacity:0.8;clip-path:url(#SVGID_73_);fill:#FFCC29;}
	.st50{fill:url(#SVGID_74_);}
	.st51{fill:none;stroke:#FBAE17;stroke-width:1.5278;stroke-miterlimit:10;}
	.st52{fill:none;stroke:#FBAE17;stroke-width:1.5256;stroke-miterlimit:10;}
	.st53{fill:url(#SVGID_75_);}
	.st54{opacity:0.8;clip-path:url(#SVGID_79_);fill:#FFCC29;}
	.st55{fill:url(#SVGID_80_);}
	.st56{fill:url(#SVGID_81_);}
	.st57{opacity:0.8;clip-path:url(#SVGID_83_);fill:#FFCC29;}
	.st58{fill:url(#SVGID_84_);}
	.st59{fill:url(#SVGID_85_);}
	.st60{fill:none;stroke:#FFB900;stroke-width:3;stroke-miterlimit:10;}
	.st61{opacity:0.8;clip-path:url(#SVGID_87_);fill:#FFCC29;}
	.st62{fill:url(#SVGID_88_);}
	.st63{fill:url(#SVGID_89_);}
	.st64{fill:url(#SVGID_90_);}
	.st65{clip-path:url(#SVGID_92_);}
	.st66{clip-path:url(#SVGID_94_);}
	.st67{clip-path:url(#SVGID_96_);}
	.st68{clip-path:url(#SVGID_98_);}
	.st69{opacity:0.8;clip-path:url(#SVGID_102_);fill:#FFCC29;}
	.st70{fill:url(#SVGID_103_);}
	.st71{fill:url(#SVGID_104_);}
	.st72{fill:url(#SVGID_105_);}
	.st73{clip-path:url(#SVGID_107_);}
	.st74{clip-path:url(#SVGID_109_);}
	.st75{clip-path:url(#SVGID_111_);}
	.st76{clip-path:url(#SVGID_113_);}
	.st77{opacity:0.8;clip-path:url(#SVGID_117_);fill:#FFCC29;}
	.st78{fill:url(#SVGID_118_);}
	.st79{fill:url(#SVGID_119_);}
	.st80{opacity:0.8;clip-path:url(#SVGID_125_);fill:#FFCC29;}
	.st81{fill:url(#SVGID_126_);}
	.st82{fill:url(#SVGID_127_);}
</style>
<g>
	<path class="st5" d="M49.99,67.71c0-3.47,0-6.95,0-10.42c0-4.2,3.09-7.29,7.29-7.29c6.95,0,13.9,0,20.85,0
		c4.11,0,7.22,3.1,7.23,7.22c0.01,6.97,0.01,13.94,0,20.91c-0.01,4.12-3.11,7.23-7.22,7.23c-6.97,0.01-13.94,0.01-20.92,0
		c-4.11-0.01-7.22-3.12-7.23-7.22C49.98,74.66,49.99,71.18,49.99,67.71z M78.25,57.13c-7.07,0-14.08,0-21.11,0
		c0,7.06,0,14.08,0,21.11c7.06,0,14.06,0,21.11,0C78.25,71.19,78.25,64.18,78.25,57.13z"/>
	<path class="st5" d="M49.99,32.31c0,3.45,0,6.91,0,10.36c0,4.24-3.08,7.32-7.34,7.32c-6.91,0-13.81,0-20.72,0
		c-4.19,0-7.28-3.1-7.28-7.3c0-6.93,0-13.86,0-20.79c0-4.15,3.11-7.25,7.27-7.25c6.93,0,13.86,0,20.79,0c4.2,0,7.28,3.09,7.28,7.3
		C49.99,25.4,49.99,28.86,49.99,32.31z M21.76,42.87c7.08,0,14.09,0,21.1,0c0-7.06,0-14.08,0-21.1c-7.06,0-14.07,0-21.1,0
		C21.76,28.82,21.76,35.83,21.76,42.87z"/>
	<path class="st5" d="M71.1,21.74c0.03-0.94,0.07-1.88,0.08-2.82c0.01-1.4,0-2.8,0-4.27c0.86,0,1.65-0.01,2.43,0
		c1.87,0.02,3.75-0.1,5.6,0.11c3.45,0.38,6.07,3.21,6.11,6.69c0.08,7.06,0.03,14.11,0.02,21.17c0,0.06-0.02,0.13-0.05,0.24
		c-2.31,0-4.63,0-7,0c0-7.02,0-14.02,0-21.13c-2.45,0-4.83,0-7.22,0L71.1,21.74z"/>
	<path class="st5" d="M28.76,77.08c0,2.31,0,4.61,0,7c-0.3,0-0.56,0-0.81,0c-2.09,0-4.18,0.01-6.27,0
		c-3.85-0.02-7.01-3.11-7.02-6.94c-0.03-6.93-0.01-13.86-0.01-20.79c0-0.15,0.02-0.3,0.03-0.49c2.33,0,4.63,0,7.03,0
		c0,7.03,0,14.07,0,21.18c1.04,0,1.98-0.01,2.92,0c1.38,0.01,2.77,0.04,4.15,0.06L28.76,77.08z"/>
	<path class="st5" d="M78.34,92.39c2.3,0,4.54,0,6.78,0c4.23-0.01,7.27-3.04,7.28-7.27c0-2.02,0-4.04,0-6.07c0-0.24,0-0.47,0-0.74
		c2.4,0,4.71,0,7.02,0c0.04,0.07,0.07,0.11,0.07,0.15c-0.03,2.88,0.11,5.77-0.13,8.63c-0.53,6.23-6.04,11.74-12.26,12.26
		c-2.88,0.24-5.79,0.04-8.75,0.04C78.34,97.12,78.34,94.77,78.34,92.39z"/>
	<path class="st5" d="M7.56,78.31c0,0.29,0,0.55,0,0.8c0.01,2.29-0.08,4.58,0.07,6.86c0.23,3.56,3.27,6.35,6.85,6.41
		c2.13,0.04,4.27,0.01,6.4,0.01c0.26,0,0.52,0,0.82,0c0,2.38,0,4.7,0,7.11c-0.25,0-0.49,0-0.72,0c-2.09,0-4.18,0-6.27,0
		C6.87,99.49,0.53,93.17,0.5,85.32c-0.01-2.11,0-4.22,0-6.33c0-0.21,0.02-0.43,0.03-0.67C2.87,78.31,5.17,78.31,7.56,78.31z"/>
	<path class="st5" d="M78.31,7.55c0-2.4,0-4.68,0-6.94c0.06-0.04,0.09-0.09,0.13-0.09c2.88,0.03,5.77-0.13,8.63,0.12
		c6.24,0.54,11.68,5.91,12.27,12.18c0.27,2.91,0.05,5.87,0.05,8.86c-2.26,0-4.58,0-6.99,0c0-0.25,0-0.48,0-0.72
		c0-2.07,0.01-4.13,0-6.2c-0.02-4.08-3.08-7.17-7.18-7.21c-2.04-0.02-4.09,0-6.14,0C78.85,7.55,78.61,7.55,78.31,7.55z"/>
	<path class="st5" d="M21.69,0.5c0,2.36,0,4.66,0,7.02c-0.26,0.01-0.49,0.03-0.73,0.03c-2.05,0-4.09,0-6.14,0.01
		c-4.15,0.02-7.24,3.12-7.27,7.27c-0.01,2,0,4,0,6.01c0,0.26,0,0.52,0,0.84c-2.35,0-4.65,0-7.02,0c-0.01-0.22-0.03-0.46-0.03-0.69
		c0-2.09-0.01-4.18,0-6.27C0.53,6.82,6.84,0.52,14.74,0.5c2.02-0.01,4.05,0,6.07,0C21.09,0.5,21.37,0.5,21.69,0.5z"/>
	<path class="st5" d="M42.89,55.87c0,2.32,0,4.62,0,6.97c-4.69,0-9.36,0-14.08,0c0-2.32,0-4.61,0-6.97
		C33.47,55.87,38.13,55.87,42.89,55.87z"/>
	<path class="st5" d="M71.16,35.9c0,2.35,0,4.63,0,6.96c-4.67,0-9.32,0-14.03,0c0-2.31,0-4.62,0-6.96
		C61.81,35.9,66.45,35.9,71.16,35.9z"/>
	<path class="st5" d="M28.78,77.1c0-2.35,0-4.7,0-7.11c2.36,0,4.69,0,7.07,0c0,2.38,0,4.75,0,7.11l0.02-0.02
		c-2.37,0-4.74,0-7.11-0.01C28.76,77.08,28.78,77.1,28.78,77.1z"/>
	<path class="st5" d="M64.1,21.79c-1.05-0.02-2.1-0.05-3.15-0.06c-1.25-0.01-2.5,0-3.81,0c0-2.36,0-4.67,0-7.03
		c2.29,0,4.58,0,6.89,0c0.01,0.02,0.07,0.05,0.07,0.08c0,2.35-0.01,4.69-0.02,7.04C64.08,21.81,64.1,21.79,64.1,21.79z"/>
	<path class="st5" d="M71.09,21.73c0.03,0.06,0.08,0.12,0.08,0.17c0,2.26,0,4.52,0,6.82c-2.33,0-4.63,0-7.07,0c0-2.3,0-4.61,0-6.93
		c0,0-0.02,0.02-0.02,0.02c0.5-0.03,1-0.08,1.49-0.08c1.84,0,3.69,0.01,5.53,0.01C71.1,21.74,71.09,21.73,71.09,21.73z"/>
	<path class="st5" d="M35.85,77.1c1.16-0.02,2.32-0.05,3.49-0.06c1.16-0.01,2.32,0,3.53,0c0,2.35,0,4.65,0,6.99c-2.3,0-4.6,0-7,0
		c0-2.31,0-4.63,0-6.95C35.87,77.09,35.85,77.1,35.85,77.1z"/>
	<path class="st5" d="M71.14,71.17c-2.35,0-4.63,0-6.96,0c0-2.33,0-4.65,0-7c2.31,0,4.61,0,6.96,0
		C71.14,66.48,71.14,68.79,71.14,71.17z"/>
	<path class="st5" d="M35.84,28.81c0,2.35,0,4.67,0,7.02c-2.35,0-4.67,0-7.03,0c0-2.34,0-4.66,0-7.02
		C31.13,28.81,33.45,28.81,35.84,28.81z"/>
</g>
</svg>
