<?xml version="1.0" encoding="utf-8"?>
<!-- Generator: Adobe Illustrator 24.1.3, SVG Export Plug-In . SVG Version: 6.00 Build 0)  -->
<svg version="1.1" id="Layer_1" xmlns="http://www.w3.org/2000/svg" xmlns:xlink="http://www.w3.org/1999/xlink" x="0px" y="0px"
	 viewBox="0 0 80 80" style="enable-background:new 0 0 80 80;" xml:space="preserve">
<style type="text/css">
	.st0{fill:#F4F4F4;}
	.st1{opacity:0.5;clip-path:url(#SVGID_2_);fill:#FFCC29;}
	.st2{opacity:0.5;clip-path:url(#SVGID_4_);fill:#FFCC29;}
	.st3{fill:none;stroke:#FBAE17;stroke-width:3;stroke-miterlimit:10;}
	.st4{fill:#FFFFFF;}
	.st5{fill:#333333;}
	.st6{fill:#FFB900;}
	.st7{fill:none;stroke:#FBAE17;stroke-width:2;stroke-miterlimit:10;}
	.st8{fill:url(#SVGID_5_);}
	.st9{fill:url(#SVGID_6_);}
	.st10{opacity:0.5;clip-path:url(#SVGID_8_);fill:#FFCC29;}
	.st11{fill:url(#SVGID_9_);}
	.st12{fill:url(#SVGID_10_);}
	.st13{opacity:0.8;clip-path:url(#SVGID_14_);fill:#FFCC29;}
	.st14{fill:url(#SVGID_15_);}
	.st15{fill:url(#SVGID_16_);}
	.st16{opacity:0.8;clip-path:url(#SVGID_24_);fill:#FFCC29;}
	.st17{fill:url(#SVGID_25_);}
	.st18{fill:url(#SVGID_26_);}
	.st19{fill:#EEEEEE;}
	.st20{opacity:0.8;clip-path:url(#SVGID_30_);fill:#FFCC29;}
	.st21{fill:url(#SVGID_31_);}
	.st22{fill:url(#SVGID_32_);}
	.st23{fill:url(#SVGID_33_);}
	.st24{clip-path:url(#SVGID_35_);}
	.st25{clip-path:url(#SVGID_37_);}
	.st26{fill:#006837;}
	.st27{clip-path:url(#SVGID_39_);}
	.st28{clip-path:url(#SVGID_41_);}
	.st29{opacity:0.8;clip-path:url(#SVGID_47_);fill:#FFCC29;}
	.st30{fill:url(#SVGID_48_);}
	.st31{fill:none;stroke:#FBAE17;stroke-width:1.5684;stroke-miterlimit:10;}
	.st32{fill:url(#SVGID_49_);}
	.st33{opacity:0.8;clip-path:url(#SVGID_55_);fill:#FFCC29;}
	.st34{fill:url(#SVGID_56_);}
	.st35{fill:url(#SVGID_57_);}
	.st36{fill:url(#SVGID_58_);}
	.st37{opacity:0.8;clip-path:url(#SVGID_60_);fill:#FFCC29;}
	.st38{fill:url(#SVGID_61_);}
	.st39{fill:url(#SVGID_62_);}
	.st40{fill:url(#SVGID_63_);}
	.st41{fill:url(#SVGID_64_);}
	.st42{fill:url(#SVGID_65_);}
	.st43{fill:url(#SVGID_66_);}
	.st44{fill:url(#SVGID_67_);}
	.st45{opacity:0.8;clip-path:url(#SVGID_69_);fill:#FFCC29;}
	.st46{fill:url(#SVGID_70_);}
	.st47{fill:none;stroke:#FBAE17;stroke-width:1.5686;stroke-miterlimit:10;}
	.st48{fill:url(#SVGID_71_);}
	.st49{opacity:0.8;clip-path:url(#SVGID_73_);fill:#FFCC29;}
	.st50{fill:url(#SVGID_74_);}
	.st51{fill:none;stroke:#FBAE17;stroke-width:1.5278;stroke-miterlimit:10;}
	.st52{fill:none;stroke:#FBAE17;stroke-width:1.5256;stroke-miterlimit:10;}
	.st53{fill:url(#SVGID_75_);}
	.st54{opacity:0.8;clip-path:url(#SVGID_79_);fill:#FFCC29;}
	.st55{fill:url(#SVGID_80_);}
	.st56{fill:url(#SVGID_81_);}
	.st57{opacity:0.8;clip-path:url(#SVGID_83_);fill:#FFCC29;}
	.st58{fill:url(#SVGID_84_);}
	.st59{fill:url(#SVGID_85_);}
	.st60{fill:none;stroke:#FFB900;stroke-width:3;stroke-miterlimit:10;}
	.st61{opacity:0.8;clip-path:url(#SVGID_87_);fill:#FFCC29;}
	.st62{fill:url(#SVGID_88_);}
	.st63{fill:url(#SVGID_89_);}
	.st64{fill:url(#SVGID_90_);}
	.st65{clip-path:url(#SVGID_92_);}
	.st66{clip-path:url(#SVGID_94_);}
	.st67{clip-path:url(#SVGID_96_);}
	.st68{clip-path:url(#SVGID_98_);}
	.st69{opacity:0.8;clip-path:url(#SVGID_102_);fill:#FFCC29;}
	.st70{fill:url(#SVGID_103_);}
	.st71{fill:url(#SVGID_104_);}
	.st72{fill:url(#SVGID_105_);}
	.st73{clip-path:url(#SVGID_107_);}
	.st74{clip-path:url(#SVGID_109_);}
	.st75{clip-path:url(#SVGID_111_);}
	.st76{clip-path:url(#SVGID_113_);}
	.st77{opacity:0.8;clip-path:url(#SVGID_117_);fill:#FFCC29;}
	.st78{fill:url(#SVGID_118_);}
	.st79{fill:url(#SVGID_119_);}
	.st80{opacity:0.8;clip-path:url(#SVGID_125_);fill:#FFCC29;}
	.st81{fill:url(#SVGID_126_);}
	.st82{fill:url(#SVGID_127_);}
</style>
<g>
	<path class="st4" d="M33.37,4.5c1.09,0.16,2.18,0.29,3.26,0.48c10.99,1.93,20,11.15,21.71,22.17c0.99,6.35-0.06,12.32-3.19,17.93
		c-0.09,0.16-0.13,0.47-0.04,0.61c0.74,1.14,0.7,2.32,0.21,3.51c-0.85,2.07-2.39,3.6-4.09,4.97c-1,0.81-2.11,1.45-3.43,1.63
		c-0.79,0.1-1.54-0.01-2.2-0.47c-0.29-0.21-0.5-0.19-0.79-0.02c-4.36,2.42-9.04,3.65-14.01,3.39c-10.74-0.56-18.6-5.7-23.56-15.22
		c-1.55-2.98-2.36-6.21-2.64-9.57c-0.01-0.17-0.07-0.34-0.11-0.52c0-1.18,0-2.37,0-3.55c0.16-1.09,0.29-2.18,0.48-3.26
		C6.88,15.78,15.83,6.85,26.62,4.97c1.06-0.19,2.13-0.32,3.2-0.47C31.01,4.5,32.19,4.5,33.37,4.5z M54.64,31.65
		C54.54,18.67,44.3,8.54,31.33,8.61C18.72,8.68,8.54,19.06,8.6,31.79c0.06,12.68,10.47,22.96,23.14,22.85
		C44.44,54.52,54.72,44.19,54.64,31.65z"/>
	<path class="st4" d="M67.69,75.5c-0.53-0.42-1.12-0.78-1.58-1.28c-4.93-5.4-9.84-10.82-14.75-16.23c-0.1-0.11-0.19-0.24-0.26-0.34
		c2.99-1.4,5.19-3.52,6.48-6.62c0.25,0.21,0.53,0.44,0.8,0.69c5.38,4.89,10.77,9.78,16.14,14.68c0.39,0.36,0.66,0.86,0.98,1.29
		c0,0.39,0,0.79,0,1.18c-0.04,0.11-0.09,0.21-0.13,0.32c-0.65,2.24-1.86,4.08-3.92,5.24c-0.77,0.44-1.64,0.71-2.47,1.06
		C68.56,75.5,68.12,75.5,67.69,75.5z"/>
</g>
</svg>
